<svg xmlns="http://www.w3.org/2000/svg" viewBox="0 0 800 450">
<defs>
<radialGradient id="g" cx="50%" cy="38%" r="75%">
<stop offset="0%" stop-color="#f59e0b" stop-opacity="0.28"/>
<stop offset="55%" stop-color="#101016" stop-opacity="1"/>
<stop offset="100%" stop-color="#08080b" stop-opacity="1"/>
</radialGradient>
<linearGradient id="v" x1="0" y1="0" x2="0" y2="1">
<stop offset="55%" stop-color="black" stop-opacity="0"/>
<stop offset="100%" stop-color="black" stop-opacity="0.55"/>
</linearGradient>
</defs>
<rect width="800" height="450" fill="url(#g)"/>
<rect x="3" y="29" width="3" height="3" fill="#ffffff" opacity="0.25"/><rect x="518" y="204" width="3" height="3" fill="#ffffff" opacity="0.25"/><rect x="19" y="59" width="3" height="3" fill="#ffffff" opacity="0.25"/><rect x="122" y="22" width="3" height="3" fill="#ffffff" opacity="0.25"/><rect x="373" y="49" width="3" height="3" fill="#ffffff" opacity="0.25"/><rect x="339" y="128" width="3" height="3" fill="#ffffff" opacity="0.25"/><rect x="298" y="46" width="3" height="3" fill="#ffffff" opacity="0.25"/><rect x="775" y="201" width="3" height="3" fill="#ffffff" opacity="0.25"/><rect x="392" y="256" width="3" height="3" fill="#ffffff" opacity="0.25"/><rect x="800" y="258" width="3" height="3" fill="#ffffff" opacity="0.25"/><rect x="273" y="29" width="3" height="3" fill="#ffffff" opacity="0.25"/><rect x="778" y="94" width="3" height="3" fill="#ffffff" opacity="0.25"/><rect x="260" y="171" width="3" height="3" fill="#ffffff" opacity="0.25"/><rect x="220" y="272" width="3" height="3" fill="#ffffff" opacity="0.25"/><rect x="731" y="69" width="3" height="3" fill="#ffffff" opacity="0.25"/><rect x="91" y="32" width="3" height="3" fill="#ffffff" opacity="0.25"/><rect x="577" y="151" width="3" height="3" fill="#ffffff" opacity="0.25"/><rect x="549" y="262" width="3" height="3" fill="#ffffff" opacity="0.25"/><rect x="411" y="89" width="3" height="3" fill="#ffffff" opacity="0.25"/><rect x="311" y="276" width="3" height="3" fill="#ffffff" opacity="0.25"/><rect x="631" y="112" width="3" height="3" fill="#ffffff" opacity="0.25"/><rect x="759" y="125" width="3" height="3" fill="#ffffff" opacity="0.25"/><rect x="794" y="272" width="3" height="3" fill="#ffffff" opacity="0.25"/><rect x="398" y="32" width="3" height="3" fill="#ffffff" opacity="0.25"/><rect x="376" y="162" width="3" height="3" fill="#ffffff" opacity="0.25"/><rect x="270" y="253" width="3" height="3" fill="#ffffff" opacity="0.25"/><rect x="414" y="112" width="3" height="3" fill="#ffffff" opacity="0.25"/><rect x="226" y="56" width="3" height="3" fill="#ffffff" opacity="0.25"/><rect x="489" y="104" width="3" height="3" fill="#ffffff" opacity="0.25"/><rect x="461" y="175" width="3" height="3" fill="#ffffff" opacity="0.25"/><rect x="122" y="180" width="3" height="3" fill="#ffffff" opacity="0.25"/><rect x="398" y="160" width="3" height="3" fill="#ffffff" opacity="0.25"/><rect x="596" y="220" width="3" height="3" fill="#ffffff" opacity="0.25"/><rect x="110" y="155" width="3" height="3" fill="#ffffff" opacity="0.25"/><rect x="317" y="120" width="3" height="3" fill="#ffffff" opacity="0.25"/><rect x="646" y="211" width="3" height="3" fill="#ffffff" opacity="0.25"/><rect x="298" y="246" width="3" height="3" fill="#ffffff" opacity="0.25"/><rect x="238" y="56" width="3" height="3" fill="#ffffff" opacity="0.25"/><rect x="320" y="75" width="3" height="3" fill="#ffffff" opacity="0.25"/><rect x="706" y="144" width="3" height="3" fill="#ffffff" opacity="0.25"/><rect x="72" y="18" width="3" height="3" fill="#ffffff" opacity="0.25"/><rect x="151" y="128" width="3" height="3" fill="#ffffff" opacity="0.25"/><rect x="427" y="242" width="3" height="3" fill="#ffffff" opacity="0.25"/><rect x="687" y="240" width="3" height="3" fill="#ffffff" opacity="0.25"/><rect x="656" y="146" width="3" height="3" fill="#ffffff" opacity="0.25"/><rect x="665" y="175" width="3" height="3" fill="#ffffff" opacity="0.25"/><rect x="370" y="24" width="3" height="3" fill="#ffffff" opacity="0.25"/><rect x="185" y="228" width="3" height="3" fill="#ffffff" opacity="0.25"/><rect x="220" y="199" width="3" height="3" fill="#ffffff" opacity="0.25"/><rect x="505" y="173" width="3" height="3" fill="#ffffff" opacity="0.25"/><rect x="511" y="156" width="3" height="3" fill="#ffffff" opacity="0.25"/><rect x="154" y="98" width="3" height="3" fill="#ffffff" opacity="0.25"/><rect x="50" y="116" width="3" height="3" fill="#ffffff" opacity="0.25"/><rect x="13" y="149" width="3" height="3" fill="#ffffff" opacity="0.25"/><rect x="486" y="231" width="3" height="3" fill="#ffffff" opacity="0.25"/><rect x="737" y="185" width="3" height="3" fill="#ffffff" opacity="0.25"/><rect x="433" y="245" width="3" height="3" fill="#ffffff" opacity="0.25"/><rect x="715" y="271" width="3" height="3" fill="#ffffff" opacity="0.25"/><rect x="756" y="260" width="3" height="3" fill="#ffffff" opacity="0.25"/><rect x="703" y="201" width="3" height="3" fill="#ffffff" opacity="0.25"/>
<polygon points="0,450 90,298 234,281 397,327 505,292 611,277 710,265 800,450" fill="#14141b"/>
<polygon points="0,450 128,323 289,324 441,332 544,337 684,360 852,365 800,450" fill="#1b1b23"/>
<polygon points="300,270 350,150 400,220 450,130 500,270" fill="none" stroke="#f59e0b" stroke-width="6"/><circle cx="400" cy="240" r="16" fill="#f59e0b"/>
<rect x="0" y="392" width="40" height="58" fill="#17171e"/><rect x="0" y="392" width="40" height="10" fill="#26262f"/><rect x="14" y="414" width="12" height="12" fill="#f59e0b" opacity="0.55"/><rect x="40" y="392" width="40" height="58" fill="#1e1e26"/><rect x="40" y="392" width="40" height="10" fill="#26262f"/><rect x="80" y="392" width="40" height="58" fill="#17171e"/><rect x="80" y="392" width="40" height="10" fill="#26262f"/><rect x="120" y="392" width="40" height="58" fill="#1e1e26"/><rect x="120" y="392" width="40" height="10" fill="#26262f"/><rect x="134" y="414" width="12" height="12" fill="#f59e0b" opacity="0.55"/><rect x="160" y="392" width="40" height="58" fill="#17171e"/><rect x="160" y="392" width="40" height="10" fill="#26262f"/><rect x="200" y="392" width="40" height="58" fill="#1e1e26"/><rect x="200" y="392" width="40" height="10" fill="#26262f"/><rect x="240" y="392" width="40" height="58" fill="#17171e"/><rect x="240" y="392" width="40" height="10" fill="#26262f"/><rect x="254" y="414" width="12" height="12" fill="#f59e0b" opacity="0.55"/><rect x="280" y="392" width="40" height="58" fill="#1e1e26"/><rect x="280" y="392" width="40" height="10" fill="#26262f"/><rect x="320" y="392" width="40" height="58" fill="#17171e"/><rect x="320" y="392" width="40" height="10" fill="#26262f"/><rect x="360" y="392" width="40" height="58" fill="#1e1e26"/><rect x="360" y="392" width="40" height="10" fill="#26262f"/><rect x="374" y="414" width="12" height="12" fill="#f59e0b" opacity="0.55"/><rect x="400" y="392" width="40" height="58" fill="#17171e"/><rect x="400" y="392" width="40" height="10" fill="#26262f"/><rect x="440" y="392" width="40" height="58" fill="#1e1e26"/><rect x="440" y="392" width="40" height="10" fill="#26262f"/><rect x="480" y="392" width="40" height="58" fill="#17171e"/><rect x="480" y="392" width="40" height="10" fill="#26262f"/><rect x="494" y="414" width="12" height="12" fill="#f59e0b" opacity="0.55"/><rect x="520" y="392" width="40" height="58" fill="#1e1e26"/><rect x="520" y="392" width="40" height="10" fill="#26262f"/><rect x="560" y="392" width="40" height="58" fill="#17171e"/><rect x="560" y="392" width="40" height="10" fill="#26262f"/><rect x="600" y="392" width="40" height="58" fill="#1e1e26"/><rect x="600" y="392" width="40" height="10" fill="#26262f"/><rect x="614" y="414" width="12" height="12" fill="#f59e0b" opacity="0.55"/><rect x="640" y="392" width="40" height="58" fill="#17171e"/><rect x="640" y="392" width="40" height="10" fill="#26262f"/><rect x="680" y="392" width="40" height="58" fill="#1e1e26"/><rect x="680" y="392" width="40" height="10" fill="#26262f"/><rect x="720" y="392" width="40" height="58" fill="#17171e"/><rect x="720" y="392" width="40" height="10" fill="#26262f"/><rect x="734" y="414" width="12" height="12" fill="#f59e0b" opacity="0.55"/><rect x="760" y="392" width="40" height="58" fill="#1e1e26"/><rect x="760" y="392" width="40" height="10" fill="#26262f"/>
<rect width="800" height="450" fill="url(#v)"/>
<rect x="24" y="24" width="150" height="10" fill="#f59e0b" opacity="0.9"/>
<rect x="24" y="40" width="90" height="6" fill="#3a3a44"/>
<text x="36" y="418" font-family="monospace" font-size="26" font-weight="bold" fill="#f0f0f3" letter-spacing="3">DECOR 1</text>
</svg>