<svg xmlns="http://www.w3.org/2000/svg" viewBox="0 0 800 450">
<defs>
<radialGradient id="g" cx="50%" cy="38%" r="75%">
<stop offset="0%" stop-color="#84cc16" stop-opacity="0.28"/>
<stop offset="55%" stop-color="#101016" stop-opacity="1"/>
<stop offset="100%" stop-color="#08080b" stop-opacity="1"/>
</radialGradient>
<linearGradient id="v" x1="0" y1="0" x2="0" y2="1">
<stop offset="55%" stop-color="black" stop-opacity="0"/>
<stop offset="100%" stop-color="black" stop-opacity="0.55"/>
</linearGradient>
</defs>
<rect width="800" height="450" fill="url(#g)"/>
<rect x="285" y="112" width="3" height="3" fill="#ffffff" opacity="0.25"/><rect x="104" y="196" width="3" height="3" fill="#ffffff" opacity="0.25"/><rect x="386" y="179" width="3" height="3" fill="#ffffff" opacity="0.25"/><rect x="728" y="187" width="3" height="3" fill="#ffffff" opacity="0.25"/><rect x="229" y="106" width="3" height="3" fill="#ffffff" opacity="0.25"/><rect x="499" y="48" width="3" height="3" fill="#ffffff" opacity="0.25"/><rect x="671" y="269" width="3" height="3" fill="#ffffff" opacity="0.25"/><rect x="627" y="299" width="3" height="3" fill="#ffffff" opacity="0.25"/><rect x="173" y="204" width="3" height="3" fill="#ffffff" opacity="0.25"/><rect x="712" y="205" width="3" height="3" fill="#ffffff" opacity="0.25"/><rect x="605" y="262" width="3" height="3" fill="#ffffff" opacity="0.25"/><rect x="483" y="280" width="3" height="3" fill="#ffffff" opacity="0.25"/><rect x="125" y="278" width="3" height="3" fill="#ffffff" opacity="0.25"/><rect x="756" y="188" width="3" height="3" fill="#ffffff" opacity="0.25"/><rect x="521" y="213" width="3" height="3" fill="#ffffff" opacity="0.25"/><rect x="452" y="268" width="3" height="3" fill="#ffffff" opacity="0.25"/><rect x="602" y="289" width="3" height="3" fill="#ffffff" opacity="0.25"/><rect x="524" y="136" width="3" height="3" fill="#ffffff" opacity="0.25"/><rect x="138" y="60" width="3" height="3" fill="#ffffff" opacity="0.25"/><rect x="772" y="212" width="3" height="3" fill="#ffffff" opacity="0.25"/><rect x="323" y="136" width="3" height="3" fill="#ffffff" opacity="0.25"/><rect x="414" y="179" width="3" height="3" fill="#ffffff" opacity="0.25"/><rect x="3" y="253" width="3" height="3" fill="#ffffff" opacity="0.25"/><rect x="627" y="279" width="3" height="3" fill="#ffffff" opacity="0.25"/><rect x="612" y="194" width="3" height="3" fill="#ffffff" opacity="0.25"/><rect x="232" y="235" width="3" height="3" fill="#ffffff" opacity="0.25"/><rect x="82" y="99" width="3" height="3" fill="#ffffff" opacity="0.25"/><rect x="442" y="115" width="3" height="3" fill="#ffffff" opacity="0.25"/><rect x="750" y="141" width="3" height="3" fill="#ffffff" opacity="0.25"/><rect x="552" y="35" width="3" height="3" fill="#ffffff" opacity="0.25"/><rect x="505" y="175" width="3" height="3" fill="#ffffff" opacity="0.25"/><rect x="508" y="181" width="3" height="3" fill="#ffffff" opacity="0.25"/><rect x="88" y="26" width="3" height="3" fill="#ffffff" opacity="0.25"/><rect x="25" y="111" width="3" height="3" fill="#ffffff" opacity="0.25"/><rect x="408" y="244" width="3" height="3" fill="#ffffff" opacity="0.25"/><rect x="602" y="221" width="3" height="3" fill="#ffffff" opacity="0.25"/><rect x="336" y="34" width="3" height="3" fill="#ffffff" opacity="0.25"/><rect x="750" y="149" width="3" height="3" fill="#ffffff" opacity="0.25"/><rect x="107" y="261" width="3" height="3" fill="#ffffff" opacity="0.25"/><rect x="135" y="154" width="3" height="3" fill="#ffffff" opacity="0.25"/><rect x="800" y="244" width="3" height="3" fill="#ffffff" opacity="0.25"/><rect x="599" y="201" width="3" height="3" fill="#ffffff" opacity="0.25"/><rect x="712" y="64" width="3" height="3" fill="#ffffff" opacity="0.25"/><rect x="643" y="6" width="3" height="3" fill="#ffffff" opacity="0.25"/><rect x="333" y="206" width="3" height="3" fill="#ffffff" opacity="0.25"/><rect x="656" y="119" width="3" height="3" fill="#ffffff" opacity="0.25"/><rect x="659" y="69" width="3" height="3" fill="#ffffff" opacity="0.25"/><rect x="279" y="36" width="3" height="3" fill="#ffffff" opacity="0.25"/><rect x="251" y="299" width="3" height="3" fill="#ffffff" opacity="0.25"/><rect x="28" y="142" width="3" height="3" fill="#ffffff" opacity="0.25"/><rect x="427" y="168" width="3" height="3" fill="#ffffff" opacity="0.25"/><rect x="675" y="224" width="3" height="3" fill="#ffffff" opacity="0.25"/><rect x="762" y="265" width="3" height="3" fill="#ffffff" opacity="0.25"/><rect x="709" y="22" width="3" height="3" fill="#ffffff" opacity="0.25"/><rect x="502" y="39" width="3" height="3" fill="#ffffff" opacity="0.25"/><rect x="285" y="46" width="3" height="3" fill="#ffffff" opacity="0.25"/><rect x="392" y="213" width="3" height="3" fill="#ffffff" opacity="0.25"/><rect x="198" y="59" width="3" height="3" fill="#ffffff" opacity="0.25"/><rect x="499" y="121" width="3" height="3" fill="#ffffff" opacity="0.25"/><rect x="245" y="136" width="3" height="3" fill="#ffffff" opacity="0.25"/>
<polygon points="0,450 119,326 267,276 369,240 498,303 590,287 690,237 800,450" fill="#14141b"/>
<polygon points="0,450 97,310 196,326 293,331 423,288 513,289 627,354 800,450" fill="#1b1b23"/>
<polygon points="300,270 350,150 400,220 450,130 500,270" fill="none" stroke="#84cc16" stroke-width="6"/><circle cx="400" cy="240" r="16" fill="#84cc16"/>
<rect x="0" y="392" width="40" height="58" fill="#17171e"/><rect x="0" y="392" width="40" height="10" fill="#26262f"/><rect x="14" y="414" width="12" height="12" fill="#84cc16" opacity="0.55"/><rect x="40" y="392" width="40" height="58" fill="#1e1e26"/><rect x="40" y="392" width="40" height="10" fill="#26262f"/><rect x="80" y="392" width="40" height="58" fill="#17171e"/><rect x="80" y="392" width="40" height="10" fill="#26262f"/><rect x="120" y="392" width="40" height="58" fill="#1e1e26"/><rect x="120" y="392" width="40" height="10" fill="#26262f"/><rect x="134" y="414" width="12" height="12" fill="#84cc16" opacity="0.55"/><rect x="160" y="392" width="40" height="58" fill="#17171e"/><rect x="160" y="392" width="40" height="10" fill="#26262f"/><rect x="200" y="392" width="40" height="58" fill="#1e1e26"/><rect x="200" y="392" width="40" height="10" fill="#26262f"/><rect x="240" y="392" width="40" height="58" fill="#17171e"/><rect x="240" y="392" width="40" height="10" fill="#26262f"/><rect x="254" y="414" width="12" height="12" fill="#84cc16" opacity="0.55"/><rect x="280" y="392" width="40" height="58" fill="#1e1e26"/><rect x="280" y="392" width="40" height="10" fill="#26262f"/><rect x="320" y="392" width="40" height="58" fill="#17171e"/><rect x="320" y="392" width="40" height="10" fill="#26262f"/><rect x="360" y="392" width="40" height="58" fill="#1e1e26"/><rect x="360" y="392" width="40" height="10" fill="#26262f"/><rect x="374" y="414" width="12" height="12" fill="#84cc16" opacity="0.55"/><rect x="400" y="392" width="40" height="58" fill="#17171e"/><rect x="400" y="392" width="40" height="10" fill="#26262f"/><rect x="440" y="392" width="40" height="58" fill="#1e1e26"/><rect x="440" y="392" width="40" height="10" fill="#26262f"/><rect x="480" y="392" width="40" height="58" fill="#17171e"/><rect x="480" y="392" width="40" height="10" fill="#26262f"/><rect x="494" y="414" width="12" height="12" fill="#84cc16" opacity="0.55"/><rect x="520" y="392" width="40" height="58" fill="#1e1e26"/><rect x="520" y="392" width="40" height="10" fill="#26262f"/><rect x="560" y="392" width="40" height="58" fill="#17171e"/><rect x="560" y="392" width="40" height="10" fill="#26262f"/><rect x="600" y="392" width="40" height="58" fill="#1e1e26"/><rect x="600" y="392" width="40" height="10" fill="#26262f"/><rect x="614" y="414" width="12" height="12" fill="#84cc16" opacity="0.55"/><rect x="640" y="392" width="40" height="58" fill="#17171e"/><rect x="640" y="392" width="40" height="10" fill="#26262f"/><rect x="680" y="392" width="40" height="58" fill="#1e1e26"/><rect x="680" y="392" width="40" height="10" fill="#26262f"/><rect x="720" y="392" width="40" height="58" fill="#17171e"/><rect x="720" y="392" width="40" height="10" fill="#26262f"/><rect x="734" y="414" width="12" height="12" fill="#84cc16" opacity="0.55"/><rect x="760" y="392" width="40" height="58" fill="#1e1e26"/><rect x="760" y="392" width="40" height="10" fill="#26262f"/>
<rect width="800" height="450" fill="url(#v)"/>
<rect x="24" y="24" width="150" height="10" fill="#84cc16" opacity="0.9"/>
<rect x="24" y="40" width="90" height="6" fill="#3a3a44"/>
<text x="36" y="418" font-family="monospace" font-size="26" font-weight="bold" fill="#f0f0f3" letter-spacing="3">FUN 2</text>
</svg>