<svg xmlns="http://www.w3.org/2000/svg" viewBox="0 0 800 450">
<defs>
<radialGradient id="g" cx="50%" cy="38%" r="75%">
<stop offset="0%" stop-color="#7c1310" stop-opacity="0.28"/>
<stop offset="55%" stop-color="#101016" stop-opacity="1"/>
<stop offset="100%" stop-color="#08080b" stop-opacity="1"/>
</radialGradient>
<linearGradient id="v" x1="0" y1="0" x2="0" y2="1">
<stop offset="55%" stop-color="black" stop-opacity="0"/>
<stop offset="100%" stop-color="black" stop-opacity="0.55"/>
</linearGradient>
</defs>
<rect width="800" height="450" fill="url(#g)"/>
<rect x="191" y="286" width="3" height="3" fill="#ffffff" opacity="0.25"/><rect x="480" y="156" width="3" height="3" fill="#ffffff" opacity="0.25"/><rect x="530" y="298" width="3" height="3" fill="#ffffff" opacity="0.25"/><rect x="430" y="138" width="3" height="3" fill="#ffffff" opacity="0.25"/><rect x="361" y="12" width="3" height="3" fill="#ffffff" opacity="0.25"/><rect x="97" y="155" width="3" height="3" fill="#ffffff" opacity="0.25"/><rect x="800" y="276" width="3" height="3" fill="#ffffff" opacity="0.25"/><rect x="715" y="86" width="3" height="3" fill="#ffffff" opacity="0.25"/><rect x="151" y="65" width="3" height="3" fill="#ffffff" opacity="0.25"/><rect x="411" y="260" width="3" height="3" fill="#ffffff" opacity="0.25"/><rect x="445" y="209" width="3" height="3" fill="#ffffff" opacity="0.25"/><rect x="383" y="266" width="3" height="3" fill="#ffffff" opacity="0.25"/><rect x="590" y="79" width="3" height="3" fill="#ffffff" opacity="0.25"/><rect x="157" y="194" width="3" height="3" fill="#ffffff" opacity="0.25"/><rect x="593" y="188" width="3" height="3" fill="#ffffff" opacity="0.25"/><rect x="656" y="227" width="3" height="3" fill="#ffffff" opacity="0.25"/><rect x="154" y="181" width="3" height="3" fill="#ffffff" opacity="0.25"/><rect x="295" y="299" width="3" height="3" fill="#ffffff" opacity="0.25"/><rect x="138" y="89" width="3" height="3" fill="#ffffff" opacity="0.25"/><rect x="285" y="247" width="3" height="3" fill="#ffffff" opacity="0.25"/><rect x="700" y="278" width="3" height="3" fill="#ffffff" opacity="0.25"/><rect x="521" y="193" width="3" height="3" fill="#ffffff" opacity="0.25"/><rect x="678" y="64" width="3" height="3" fill="#ffffff" opacity="0.25"/><rect x="722" y="175" width="3" height="3" fill="#ffffff" opacity="0.25"/><rect x="232" y="127" width="3" height="3" fill="#ffffff" opacity="0.25"/><rect x="47" y="200" width="3" height="3" fill="#ffffff" opacity="0.25"/><rect x="191" y="96" width="3" height="3" fill="#ffffff" opacity="0.25"/><rect x="493" y="206" width="3" height="3" fill="#ffffff" opacity="0.25"/><rect x="85" y="174" width="3" height="3" fill="#ffffff" opacity="0.25"/><rect x="295" y="22" width="3" height="3" fill="#ffffff" opacity="0.25"/><rect x="649" y="171" width="3" height="3" fill="#ffffff" opacity="0.25"/><rect x="530" y="201" width="3" height="3" fill="#ffffff" opacity="0.25"/><rect x="141" y="126" width="3" height="3" fill="#ffffff" opacity="0.25"/><rect x="370" y="295" width="3" height="3" fill="#ffffff" opacity="0.25"/><rect x="220" y="269" width="3" height="3" fill="#ffffff" opacity="0.25"/><rect x="543" y="260" width="3" height="3" fill="#ffffff" opacity="0.25"/><rect x="493" y="221" width="3" height="3" fill="#ffffff" opacity="0.25"/><rect x="439" y="281" width="3" height="3" fill="#ffffff" opacity="0.25"/><rect x="411" y="104" width="3" height="3" fill="#ffffff" opacity="0.25"/><rect x="257" y="145" width="3" height="3" fill="#ffffff" opacity="0.25"/><rect x="154" y="168" width="3" height="3" fill="#ffffff" opacity="0.25"/><rect x="166" y="47" width="3" height="3" fill="#ffffff" opacity="0.25"/><rect x="279" y="55" width="3" height="3" fill="#ffffff" opacity="0.25"/><rect x="75" y="71" width="3" height="3" fill="#ffffff" opacity="0.25"/><rect x="675" y="11" width="3" height="3" fill="#ffffff" opacity="0.25"/><rect x="398" y="182" width="3" height="3" fill="#ffffff" opacity="0.25"/><rect x="574" y="164" width="3" height="3" fill="#ffffff" opacity="0.25"/><rect x="671" y="265" width="3" height="3" fill="#ffffff" opacity="0.25"/><rect x="204" y="161" width="3" height="3" fill="#ffffff" opacity="0.25"/><rect x="439" y="108" width="3" height="3" fill="#ffffff" opacity="0.25"/><rect x="703" y="61" width="3" height="3" fill="#ffffff" opacity="0.25"/><rect x="116" y="222" width="3" height="3" fill="#ffffff" opacity="0.25"/><rect x="502" y="155" width="3" height="3" fill="#ffffff" opacity="0.25"/><rect x="323" y="114" width="3" height="3" fill="#ffffff" opacity="0.25"/><rect x="577" y="289" width="3" height="3" fill="#ffffff" opacity="0.25"/><rect x="88" y="269" width="3" height="3" fill="#ffffff" opacity="0.25"/><rect x="154" y="154" width="3" height="3" fill="#ffffff" opacity="0.25"/><rect x="91" y="71" width="3" height="3" fill="#ffffff" opacity="0.25"/><rect x="725" y="267" width="3" height="3" fill="#ffffff" opacity="0.25"/><rect x="226" y="293" width="3" height="3" fill="#ffffff" opacity="0.25"/>
<polygon points="0,450 102,270 219,287 349,290 493,260 607,276 712,280 800,450" fill="#14141b"/>
<polygon points="0,450 126,358 225,356 334,364 428,366 519,360 678,298 800,450" fill="#1b1b23"/>
<polygon points="300,270 350,150 400,220 450,130 500,270" fill="none" stroke="#7c1310" stroke-width="6"/><circle cx="400" cy="240" r="16" fill="#7c1310"/>
<rect x="0" y="392" width="40" height="58" fill="#17171e"/><rect x="0" y="392" width="40" height="10" fill="#26262f"/><rect x="14" y="414" width="12" height="12" fill="#7c1310" opacity="0.55"/><rect x="40" y="392" width="40" height="58" fill="#1e1e26"/><rect x="40" y="392" width="40" height="10" fill="#26262f"/><rect x="80" y="392" width="40" height="58" fill="#17171e"/><rect x="80" y="392" width="40" height="10" fill="#26262f"/><rect x="120" y="392" width="40" height="58" fill="#1e1e26"/><rect x="120" y="392" width="40" height="10" fill="#26262f"/><rect x="134" y="414" width="12" height="12" fill="#7c1310" opacity="0.55"/><rect x="160" y="392" width="40" height="58" fill="#17171e"/><rect x="160" y="392" width="40" height="10" fill="#26262f"/><rect x="200" y="392" width="40" height="58" fill="#1e1e26"/><rect x="200" y="392" width="40" height="10" fill="#26262f"/><rect x="240" y="392" width="40" height="58" fill="#17171e"/><rect x="240" y="392" width="40" height="10" fill="#26262f"/><rect x="254" y="414" width="12" height="12" fill="#7c1310" opacity="0.55"/><rect x="280" y="392" width="40" height="58" fill="#1e1e26"/><rect x="280" y="392" width="40" height="10" fill="#26262f"/><rect x="320" y="392" width="40" height="58" fill="#17171e"/><rect x="320" y="392" width="40" height="10" fill="#26262f"/><rect x="360" y="392" width="40" height="58" fill="#1e1e26"/><rect x="360" y="392" width="40" height="10" fill="#26262f"/><rect x="374" y="414" width="12" height="12" fill="#7c1310" opacity="0.55"/><rect x="400" y="392" width="40" height="58" fill="#17171e"/><rect x="400" y="392" width="40" height="10" fill="#26262f"/><rect x="440" y="392" width="40" height="58" fill="#1e1e26"/><rect x="440" y="392" width="40" height="10" fill="#26262f"/><rect x="480" y="392" width="40" height="58" fill="#17171e"/><rect x="480" y="392" width="40" height="10" fill="#26262f"/><rect x="494" y="414" width="12" height="12" fill="#7c1310" opacity="0.55"/><rect x="520" y="392" width="40" height="58" fill="#1e1e26"/><rect x="520" y="392" width="40" height="10" fill="#26262f"/><rect x="560" y="392" width="40" height="58" fill="#17171e"/><rect x="560" y="392" width="40" height="10" fill="#26262f"/><rect x="600" y="392" width="40" height="58" fill="#1e1e26"/><rect x="600" y="392" width="40" height="10" fill="#26262f"/><rect x="614" y="414" width="12" height="12" fill="#7c1310" opacity="0.55"/><rect x="640" y="392" width="40" height="58" fill="#17171e"/><rect x="640" y="392" width="40" height="10" fill="#26262f"/><rect x="680" y="392" width="40" height="58" fill="#1e1e26"/><rect x="680" y="392" width="40" height="10" fill="#26262f"/><rect x="720" y="392" width="40" height="58" fill="#17171e"/><rect x="720" y="392" width="40" height="10" fill="#26262f"/><rect x="734" y="414" width="12" height="12" fill="#7c1310" opacity="0.55"/><rect x="760" y="392" width="40" height="58" fill="#1e1e26"/><rect x="760" y="392" width="40" height="10" fill="#26262f"/>
<rect width="800" height="450" fill="url(#v)"/>
<rect x="24" y="24" width="150" height="10" fill="#7c1310" opacity="0.9"/>
<rect x="24" y="40" width="90" height="6" fill="#3a3a44"/>
<text x="36" y="418" font-family="monospace" font-size="26" font-weight="bold" fill="#f0f0f3" letter-spacing="3">HORROR 1</text>
</svg>