<svg xmlns="http://www.w3.org/2000/svg" viewBox="0 0 800 450">
<defs>
<radialGradient id="g" cx="50%" cy="38%" r="75%">
<stop offset="0%" stop-color="#34d399" stop-opacity="0.28"/>
<stop offset="55%" stop-color="#101016" stop-opacity="1"/>
<stop offset="100%" stop-color="#08080b" stop-opacity="1"/>
</radialGradient>
<linearGradient id="v" x1="0" y1="0" x2="0" y2="1">
<stop offset="55%" stop-color="black" stop-opacity="0"/>
<stop offset="100%" stop-color="black" stop-opacity="0.55"/>
</linearGradient>
</defs>
<rect width="800" height="450" fill="url(#g)"/>
<rect x="690" y="180" width="3" height="3" fill="#ffffff" opacity="0.25"/><rect x="154" y="74" width="3" height="3" fill="#ffffff" opacity="0.25"/><rect x="242" y="7" width="3" height="3" fill="#ffffff" opacity="0.25"/><rect x="160" y="60" width="3" height="3" fill="#ffffff" opacity="0.25"/><rect x="640" y="169" width="3" height="3" fill="#ffffff" opacity="0.25"/><rect x="361" y="93" width="3" height="3" fill="#ffffff" opacity="0.25"/><rect x="596" y="159" width="3" height="3" fill="#ffffff" opacity="0.25"/><rect x="562" y="52" width="3" height="3" fill="#ffffff" opacity="0.25"/><rect x="665" y="129" width="3" height="3" fill="#ffffff" opacity="0.25"/><rect x="97" y="92" width="3" height="3" fill="#ffffff" opacity="0.25"/><rect x="210" y="140" width="3" height="3" fill="#ffffff" opacity="0.25"/><rect x="700" y="231" width="3" height="3" fill="#ffffff" opacity="0.25"/><rect x="289" y="108" width="3" height="3" fill="#ffffff" opacity="0.25"/><rect x="681" y="149" width="3" height="3" fill="#ffffff" opacity="0.25"/><rect x="467" y="214" width="3" height="3" fill="#ffffff" opacity="0.25"/><rect x="781" y="253" width="3" height="3" fill="#ffffff" opacity="0.25"/><rect x="216" y="109" width="3" height="3" fill="#ffffff" opacity="0.25"/><rect x="232" y="166" width="3" height="3" fill="#ffffff" opacity="0.25"/><rect x="411" y="118" width="3" height="3" fill="#ffffff" opacity="0.25"/><rect x="254" y="211" width="3" height="3" fill="#ffffff" opacity="0.25"/><rect x="445" y="62" width="3" height="3" fill="#ffffff" opacity="0.25"/><rect x="22" y="7" width="3" height="3" fill="#ffffff" opacity="0.25"/><rect x="342" y="209" width="3" height="3" fill="#ffffff" opacity="0.25"/><rect x="493" y="156" width="3" height="3" fill="#ffffff" opacity="0.25"/><rect x="47" y="228" width="3" height="3" fill="#ffffff" opacity="0.25"/><rect x="747" y="219" width="3" height="3" fill="#ffffff" opacity="0.25"/><rect x="590" y="56" width="3" height="3" fill="#ffffff" opacity="0.25"/><rect x="383" y="276" width="3" height="3" fill="#ffffff" opacity="0.25"/><rect x="555" y="242" width="3" height="3" fill="#ffffff" opacity="0.25"/><rect x="267" y="133" width="3" height="3" fill="#ffffff" opacity="0.25"/><rect x="292" y="74" width="3" height="3" fill="#ffffff" opacity="0.25"/><rect x="333" y="127" width="3" height="3" fill="#ffffff" opacity="0.25"/><rect x="458" y="4" width="3" height="3" fill="#ffffff" opacity="0.25"/><rect x="179" y="129" width="3" height="3" fill="#ffffff" opacity="0.25"/><rect x="489" y="246" width="3" height="3" fill="#ffffff" opacity="0.25"/><rect x="35" y="246" width="3" height="3" fill="#ffffff" opacity="0.25"/><rect x="188" y="67" width="3" height="3" fill="#ffffff" opacity="0.25"/><rect x="276" y="131" width="3" height="3" fill="#ffffff" opacity="0.25"/><rect x="609" y="202" width="3" height="3" fill="#ffffff" opacity="0.25"/><rect x="22" y="248" width="3" height="3" fill="#ffffff" opacity="0.25"/><rect x="395" y="106" width="3" height="3" fill="#ffffff" opacity="0.25"/><rect x="179" y="66" width="3" height="3" fill="#ffffff" opacity="0.25"/><rect x="386" y="44" width="3" height="3" fill="#ffffff" opacity="0.25"/><rect x="69" y="288" width="3" height="3" fill="#ffffff" opacity="0.25"/><rect x="0" y="2" width="3" height="3" fill="#ffffff" opacity="0.25"/><rect x="417" y="201" width="3" height="3" fill="#ffffff" opacity="0.25"/><rect x="355" y="245" width="3" height="3" fill="#ffffff" opacity="0.25"/><rect x="144" y="32" width="3" height="3" fill="#ffffff" opacity="0.25"/><rect x="195" y="32" width="3" height="3" fill="#ffffff" opacity="0.25"/><rect x="176" y="175" width="3" height="3" fill="#ffffff" opacity="0.25"/><rect x="6" y="248" width="3" height="3" fill="#ffffff" opacity="0.25"/><rect x="295" y="55" width="3" height="3" fill="#ffffff" opacity="0.25"/><rect x="329" y="227" width="3" height="3" fill="#ffffff" opacity="0.25"/><rect x="502" y="272" width="3" height="3" fill="#ffffff" opacity="0.25"/><rect x="53" y="215" width="3" height="3" fill="#ffffff" opacity="0.25"/><rect x="333" y="188" width="3" height="3" fill="#ffffff" opacity="0.25"/><rect x="505" y="145" width="3" height="3" fill="#ffffff" opacity="0.25"/><rect x="627" y="293" width="3" height="3" fill="#ffffff" opacity="0.25"/><rect x="634" y="192" width="3" height="3" fill="#ffffff" opacity="0.25"/><rect x="345" y="220" width="3" height="3" fill="#ffffff" opacity="0.25"/>
<polygon points="0,450 91,304 243,276 400,218 512,308 667,216 836,240 800,450" fill="#14141b"/>
<polygon points="0,450 106,369 238,332 361,368 497,320 607,310 756,341 800,450" fill="#1b1b23"/>
<polygon points="300,270 350,150 400,220 450,130 500,270" fill="none" stroke="#34d399" stroke-width="6"/><circle cx="400" cy="240" r="16" fill="#34d399"/>
<rect x="0" y="392" width="40" height="58" fill="#17171e"/><rect x="0" y="392" width="40" height="10" fill="#26262f"/><rect x="14" y="414" width="12" height="12" fill="#34d399" opacity="0.55"/><rect x="40" y="392" width="40" height="58" fill="#1e1e26"/><rect x="40" y="392" width="40" height="10" fill="#26262f"/><rect x="80" y="392" width="40" height="58" fill="#17171e"/><rect x="80" y="392" width="40" height="10" fill="#26262f"/><rect x="120" y="392" width="40" height="58" fill="#1e1e26"/><rect x="120" y="392" width="40" height="10" fill="#26262f"/><rect x="134" y="414" width="12" height="12" fill="#34d399" opacity="0.55"/><rect x="160" y="392" width="40" height="58" fill="#17171e"/><rect x="160" y="392" width="40" height="10" fill="#26262f"/><rect x="200" y="392" width="40" height="58" fill="#1e1e26"/><rect x="200" y="392" width="40" height="10" fill="#26262f"/><rect x="240" y="392" width="40" height="58" fill="#17171e"/><rect x="240" y="392" width="40" height="10" fill="#26262f"/><rect x="254" y="414" width="12" height="12" fill="#34d399" opacity="0.55"/><rect x="280" y="392" width="40" height="58" fill="#1e1e26"/><rect x="280" y="392" width="40" height="10" fill="#26262f"/><rect x="320" y="392" width="40" height="58" fill="#17171e"/><rect x="320" y="392" width="40" height="10" fill="#26262f"/><rect x="360" y="392" width="40" height="58" fill="#1e1e26"/><rect x="360" y="392" width="40" height="10" fill="#26262f"/><rect x="374" y="414" width="12" height="12" fill="#34d399" opacity="0.55"/><rect x="400" y="392" width="40" height="58" fill="#17171e"/><rect x="400" y="392" width="40" height="10" fill="#26262f"/><rect x="440" y="392" width="40" height="58" fill="#1e1e26"/><rect x="440" y="392" width="40" height="10" fill="#26262f"/><rect x="480" y="392" width="40" height="58" fill="#17171e"/><rect x="480" y="392" width="40" height="10" fill="#26262f"/><rect x="494" y="414" width="12" height="12" fill="#34d399" opacity="0.55"/><rect x="520" y="392" width="40" height="58" fill="#1e1e26"/><rect x="520" y="392" width="40" height="10" fill="#26262f"/><rect x="560" y="392" width="40" height="58" fill="#17171e"/><rect x="560" y="392" width="40" height="10" fill="#26262f"/><rect x="600" y="392" width="40" height="58" fill="#1e1e26"/><rect x="600" y="392" width="40" height="10" fill="#26262f"/><rect x="614" y="414" width="12" height="12" fill="#34d399" opacity="0.55"/><rect x="640" y="392" width="40" height="58" fill="#17171e"/><rect x="640" y="392" width="40" height="10" fill="#26262f"/><rect x="680" y="392" width="40" height="58" fill="#1e1e26"/><rect x="680" y="392" width="40" height="10" fill="#26262f"/><rect x="720" y="392" width="40" height="58" fill="#17171e"/><rect x="720" y="392" width="40" height="10" fill="#26262f"/><rect x="734" y="414" width="12" height="12" fill="#34d399" opacity="0.55"/><rect x="760" y="392" width="40" height="58" fill="#1e1e26"/><rect x="760" y="392" width="40" height="10" fill="#26262f"/>
<rect width="800" height="450" fill="url(#v)"/>
<rect x="24" y="24" width="150" height="10" fill="#34d399" opacity="0.9"/>
<rect x="24" y="40" width="90" height="6" fill="#3a3a44"/>
<text x="36" y="418" font-family="monospace" font-size="26" font-weight="bold" fill="#f0f0f3" letter-spacing="3">CAVERNOUS WORLDGEN</text>
</svg>