<svg xmlns="http://www.w3.org/2000/svg" viewBox="0 0 800 450">
<defs>
<radialGradient id="g" cx="50%" cy="38%" r="75%">
<stop offset="0%" stop-color="#0ea5e9" stop-opacity="0.28"/>
<stop offset="55%" stop-color="#101016" stop-opacity="1"/>
<stop offset="100%" stop-color="#08080b" stop-opacity="1"/>
</radialGradient>
<linearGradient id="v" x1="0" y1="0" x2="0" y2="1">
<stop offset="55%" stop-color="black" stop-opacity="0"/>
<stop offset="100%" stop-color="black" stop-opacity="0.55"/>
</linearGradient>
</defs>
<rect width="800" height="450" fill="url(#g)"/>
<rect x="9" y="155" width="3" height="3" fill="#ffffff" opacity="0.25"/><rect x="198" y="46" width="3" height="3" fill="#ffffff" opacity="0.25"/><rect x="25" y="181" width="3" height="3" fill="#ffffff" opacity="0.25"/><rect x="700" y="258" width="3" height="3" fill="#ffffff" opacity="0.25"/><rect x="195" y="209" width="3" height="3" fill="#ffffff" opacity="0.25"/><rect x="571" y="21" width="3" height="3" fill="#ffffff" opacity="0.25"/><rect x="530" y="159" width="3" height="3" fill="#ffffff" opacity="0.25"/><rect x="295" y="226" width="3" height="3" fill="#ffffff" opacity="0.25"/><rect x="787" y="89" width="3" height="3" fill="#ffffff" opacity="0.25"/><rect x="383" y="107" width="3" height="3" fill="#ffffff" opacity="0.25"/><rect x="97" y="61" width="3" height="3" fill="#ffffff" opacity="0.25"/><rect x="530" y="51" width="3" height="3" fill="#ffffff" opacity="0.25"/><rect x="358" y="108" width="3" height="3" fill="#ffffff" opacity="0.25"/><rect x="47" y="89" width="3" height="3" fill="#ffffff" opacity="0.25"/><rect x="568" y="248" width="3" height="3" fill="#ffffff" opacity="0.25"/><rect x="467" y="264" width="3" height="3" fill="#ffffff" opacity="0.25"/><rect x="276" y="38" width="3" height="3" fill="#ffffff" opacity="0.25"/><rect x="91" y="202" width="3" height="3" fill="#ffffff" opacity="0.25"/><rect x="361" y="231" width="3" height="3" fill="#ffffff" opacity="0.25"/><rect x="759" y="102" width="3" height="3" fill="#ffffff" opacity="0.25"/><rect x="19" y="64" width="3" height="3" fill="#ffffff" opacity="0.25"/><rect x="226" y="184" width="3" height="3" fill="#ffffff" opacity="0.25"/><rect x="587" y="101" width="3" height="3" fill="#ffffff" opacity="0.25"/><rect x="298" y="139" width="3" height="3" fill="#ffffff" opacity="0.25"/><rect x="640" y="68" width="3" height="3" fill="#ffffff" opacity="0.25"/><rect x="402" y="138" width="3" height="3" fill="#ffffff" opacity="0.25"/><rect x="351" y="128" width="3" height="3" fill="#ffffff" opacity="0.25"/><rect x="445" y="280" width="3" height="3" fill="#ffffff" opacity="0.25"/><rect x="524" y="194" width="3" height="3" fill="#ffffff" opacity="0.25"/><rect x="329" y="80" width="3" height="3" fill="#ffffff" opacity="0.25"/><rect x="678" y="245" width="3" height="3" fill="#ffffff" opacity="0.25"/><rect x="621" y="245" width="3" height="3" fill="#ffffff" opacity="0.25"/><rect x="700" y="126" width="3" height="3" fill="#ffffff" opacity="0.25"/><rect x="471" y="0" width="3" height="3" fill="#ffffff" opacity="0.25"/><rect x="696" y="185" width="3" height="3" fill="#ffffff" opacity="0.25"/><rect x="574" y="12" width="3" height="3" fill="#ffffff" opacity="0.25"/><rect x="348" y="294" width="3" height="3" fill="#ffffff" opacity="0.25"/><rect x="16" y="32" width="3" height="3" fill="#ffffff" opacity="0.25"/><rect x="740" y="214" width="3" height="3" fill="#ffffff" opacity="0.25"/><rect x="411" y="193" width="3" height="3" fill="#ffffff" opacity="0.25"/><rect x="627" y="256" width="3" height="3" fill="#ffffff" opacity="0.25"/><rect x="414" y="252" width="3" height="3" fill="#ffffff" opacity="0.25"/><rect x="41" y="38" width="3" height="3" fill="#ffffff" opacity="0.25"/><rect x="605" y="293" width="3" height="3" fill="#ffffff" opacity="0.25"/><rect x="351" y="115" width="3" height="3" fill="#ffffff" opacity="0.25"/><rect x="129" y="51" width="3" height="3" fill="#ffffff" opacity="0.25"/><rect x="25" y="295" width="3" height="3" fill="#ffffff" opacity="0.25"/><rect x="728" y="138" width="3" height="3" fill="#ffffff" opacity="0.25"/><rect x="41" y="27" width="3" height="3" fill="#ffffff" opacity="0.25"/><rect x="558" y="0" width="3" height="3" fill="#ffffff" opacity="0.25"/><rect x="336" y="196" width="3" height="3" fill="#ffffff" opacity="0.25"/><rect x="756" y="167" width="3" height="3" fill="#ffffff" opacity="0.25"/><rect x="442" y="172" width="3" height="3" fill="#ffffff" opacity="0.25"/><rect x="596" y="104" width="3" height="3" fill="#ffffff" opacity="0.25"/><rect x="185" y="199" width="3" height="3" fill="#ffffff" opacity="0.25"/><rect x="223" y="211" width="3" height="3" fill="#ffffff" opacity="0.25"/><rect x="549" y="128" width="3" height="3" fill="#ffffff" opacity="0.25"/><rect x="119" y="260" width="3" height="3" fill="#ffffff" opacity="0.25"/><rect x="452" y="48" width="3" height="3" fill="#ffffff" opacity="0.25"/><rect x="624" y="151" width="3" height="3" fill="#ffffff" opacity="0.25"/>
<polygon points="0,450 115,280 223,215 314,327 410,231 551,233 650,225 800,450" fill="#14141b"/>
<polygon points="0,450 160,354 250,290 402,292 526,299 645,362 757,356 800,450" fill="#1b1b23"/>
<polygon points="300,270 350,150 400,220 450,130 500,270" fill="none" stroke="#0ea5e9" stroke-width="6"/><circle cx="400" cy="240" r="16" fill="#0ea5e9"/>
<rect x="0" y="392" width="40" height="58" fill="#17171e"/><rect x="0" y="392" width="40" height="10" fill="#26262f"/><rect x="14" y="414" width="12" height="12" fill="#0ea5e9" opacity="0.55"/><rect x="40" y="392" width="40" height="58" fill="#1e1e26"/><rect x="40" y="392" width="40" height="10" fill="#26262f"/><rect x="80" y="392" width="40" height="58" fill="#17171e"/><rect x="80" y="392" width="40" height="10" fill="#26262f"/><rect x="120" y="392" width="40" height="58" fill="#1e1e26"/><rect x="120" y="392" width="40" height="10" fill="#26262f"/><rect x="134" y="414" width="12" height="12" fill="#0ea5e9" opacity="0.55"/><rect x="160" y="392" width="40" height="58" fill="#17171e"/><rect x="160" y="392" width="40" height="10" fill="#26262f"/><rect x="200" y="392" width="40" height="58" fill="#1e1e26"/><rect x="200" y="392" width="40" height="10" fill="#26262f"/><rect x="240" y="392" width="40" height="58" fill="#17171e"/><rect x="240" y="392" width="40" height="10" fill="#26262f"/><rect x="254" y="414" width="12" height="12" fill="#0ea5e9" opacity="0.55"/><rect x="280" y="392" width="40" height="58" fill="#1e1e26"/><rect x="280" y="392" width="40" height="10" fill="#26262f"/><rect x="320" y="392" width="40" height="58" fill="#17171e"/><rect x="320" y="392" width="40" height="10" fill="#26262f"/><rect x="360" y="392" width="40" height="58" fill="#1e1e26"/><rect x="360" y="392" width="40" height="10" fill="#26262f"/><rect x="374" y="414" width="12" height="12" fill="#0ea5e9" opacity="0.55"/><rect x="400" y="392" width="40" height="58" fill="#17171e"/><rect x="400" y="392" width="40" height="10" fill="#26262f"/><rect x="440" y="392" width="40" height="58" fill="#1e1e26"/><rect x="440" y="392" width="40" height="10" fill="#26262f"/><rect x="480" y="392" width="40" height="58" fill="#17171e"/><rect x="480" y="392" width="40" height="10" fill="#26262f"/><rect x="494" y="414" width="12" height="12" fill="#0ea5e9" opacity="0.55"/><rect x="520" y="392" width="40" height="58" fill="#1e1e26"/><rect x="520" y="392" width="40" height="10" fill="#26262f"/><rect x="560" y="392" width="40" height="58" fill="#17171e"/><rect x="560" y="392" width="40" height="10" fill="#26262f"/><rect x="600" y="392" width="40" height="58" fill="#1e1e26"/><rect x="600" y="392" width="40" height="10" fill="#26262f"/><rect x="614" y="414" width="12" height="12" fill="#0ea5e9" opacity="0.55"/><rect x="640" y="392" width="40" height="58" fill="#17171e"/><rect x="640" y="392" width="40" height="10" fill="#26262f"/><rect x="680" y="392" width="40" height="58" fill="#1e1e26"/><rect x="680" y="392" width="40" height="10" fill="#26262f"/><rect x="720" y="392" width="40" height="58" fill="#17171e"/><rect x="720" y="392" width="40" height="10" fill="#26262f"/><rect x="734" y="414" width="12" height="12" fill="#0ea5e9" opacity="0.55"/><rect x="760" y="392" width="40" height="58" fill="#1e1e26"/><rect x="760" y="392" width="40" height="10" fill="#26262f"/>
<rect width="800" height="450" fill="url(#v)"/>
<rect x="24" y="24" width="150" height="10" fill="#0ea5e9" opacity="0.9"/>
<rect x="24" y="40" width="90" height="6" fill="#3a3a44"/>
<text x="36" y="418" font-family="monospace" font-size="26" font-weight="bold" fill="#f0f0f3" letter-spacing="3">DEEP DARK EXPANSIO</text>
</svg>