<svg xmlns="http://www.w3.org/2000/svg" viewBox="0 0 800 450">
<defs>
<radialGradient id="g" cx="50%" cy="38%" r="75%">
<stop offset="0%" stop-color="#b78a3e" stop-opacity="0.28"/>
<stop offset="55%" stop-color="#101016" stop-opacity="1"/>
<stop offset="100%" stop-color="#08080b" stop-opacity="1"/>
</radialGradient>
<linearGradient id="v" x1="0" y1="0" x2="0" y2="1">
<stop offset="55%" stop-color="black" stop-opacity="0"/>
<stop offset="100%" stop-color="black" stop-opacity="0.55"/>
</linearGradient>
</defs>
<rect width="800" height="450" fill="url(#g)"/>
<rect x="273" y="14" width="3" height="3" fill="#ffffff" opacity="0.25"/><rect x="173" y="224" width="3" height="3" fill="#ffffff" opacity="0.25"/><rect x="486" y="51" width="3" height="3" fill="#ffffff" opacity="0.25"/><rect x="496" y="59" width="3" height="3" fill="#ffffff" opacity="0.25"/><rect x="772" y="59" width="3" height="3" fill="#ffffff" opacity="0.25"/><rect x="191" y="72" width="3" height="3" fill="#ffffff" opacity="0.25"/><rect x="342" y="69" width="3" height="3" fill="#ffffff" opacity="0.25"/><rect x="72" y="273" width="3" height="3" fill="#ffffff" opacity="0.25"/><rect x="800" y="42" width="3" height="3" fill="#ffffff" opacity="0.25"/><rect x="9" y="207" width="3" height="3" fill="#ffffff" opacity="0.25"/><rect x="41" y="205" width="3" height="3" fill="#ffffff" opacity="0.25"/><rect x="220" y="35" width="3" height="3" fill="#ffffff" opacity="0.25"/><rect x="383" y="294" width="3" height="3" fill="#ffffff" opacity="0.25"/><rect x="3" y="99" width="3" height="3" fill="#ffffff" opacity="0.25"/><rect x="223" y="81" width="3" height="3" fill="#ffffff" opacity="0.25"/><rect x="389" y="192" width="3" height="3" fill="#ffffff" opacity="0.25"/><rect x="712" y="88" width="3" height="3" fill="#ffffff" opacity="0.25"/><rect x="722" y="56" width="3" height="3" fill="#ffffff" opacity="0.25"/><rect x="173" y="68" width="3" height="3" fill="#ffffff" opacity="0.25"/><rect x="605" y="267" width="3" height="3" fill="#ffffff" opacity="0.25"/><rect x="151" y="69" width="3" height="3" fill="#ffffff" opacity="0.25"/><rect x="267" y="282" width="3" height="3" fill="#ffffff" opacity="0.25"/><rect x="493" y="274" width="3" height="3" fill="#ffffff" opacity="0.25"/><rect x="433" y="51" width="3" height="3" fill="#ffffff" opacity="0.25"/><rect x="226" y="151" width="3" height="3" fill="#ffffff" opacity="0.25"/><rect x="769" y="204" width="3" height="3" fill="#ffffff" opacity="0.25"/><rect x="129" y="115" width="3" height="3" fill="#ffffff" opacity="0.25"/><rect x="662" y="12" width="3" height="3" fill="#ffffff" opacity="0.25"/><rect x="254" y="160" width="3" height="3" fill="#ffffff" opacity="0.25"/><rect x="452" y="173" width="3" height="3" fill="#ffffff" opacity="0.25"/><rect x="94" y="196" width="3" height="3" fill="#ffffff" opacity="0.25"/><rect x="552" y="244" width="3" height="3" fill="#ffffff" opacity="0.25"/><rect x="439" y="79" width="3" height="3" fill="#ffffff" opacity="0.25"/><rect x="744" y="92" width="3" height="3" fill="#ffffff" opacity="0.25"/><rect x="104" y="160" width="3" height="3" fill="#ffffff" opacity="0.25"/><rect x="590" y="244" width="3" height="3" fill="#ffffff" opacity="0.25"/><rect x="326" y="275" width="3" height="3" fill="#ffffff" opacity="0.25"/><rect x="110" y="191" width="3" height="3" fill="#ffffff" opacity="0.25"/><rect x="35" y="193" width="3" height="3" fill="#ffffff" opacity="0.25"/><rect x="445" y="254" width="3" height="3" fill="#ffffff" opacity="0.25"/><rect x="769" y="139" width="3" height="3" fill="#ffffff" opacity="0.25"/><rect x="345" y="255" width="3" height="3" fill="#ffffff" opacity="0.25"/><rect x="433" y="286" width="3" height="3" fill="#ffffff" opacity="0.25"/><rect x="147" y="182" width="3" height="3" fill="#ffffff" opacity="0.25"/><rect x="747" y="58" width="3" height="3" fill="#ffffff" opacity="0.25"/><rect x="599" y="152" width="3" height="3" fill="#ffffff" opacity="0.25"/><rect x="637" y="48" width="3" height="3" fill="#ffffff" opacity="0.25"/><rect x="386" y="4" width="3" height="3" fill="#ffffff" opacity="0.25"/><rect x="722" y="161" width="3" height="3" fill="#ffffff" opacity="0.25"/><rect x="631" y="212" width="3" height="3" fill="#ffffff" opacity="0.25"/><rect x="273" y="112" width="3" height="3" fill="#ffffff" opacity="0.25"/><rect x="207" y="2" width="3" height="3" fill="#ffffff" opacity="0.25"/><rect x="675" y="173" width="3" height="3" fill="#ffffff" opacity="0.25"/><rect x="427" y="235" width="3" height="3" fill="#ffffff" opacity="0.25"/><rect x="326" y="154" width="3" height="3" fill="#ffffff" opacity="0.25"/><rect x="405" y="75" width="3" height="3" fill="#ffffff" opacity="0.25"/><rect x="257" y="47" width="3" height="3" fill="#ffffff" opacity="0.25"/><rect x="584" y="101" width="3" height="3" fill="#ffffff" opacity="0.25"/><rect x="238" y="240" width="3" height="3" fill="#ffffff" opacity="0.25"/><rect x="31" y="191" width="3" height="3" fill="#ffffff" opacity="0.25"/>
<polygon points="0,450 132,249 264,210 358,322 497,291 602,311 733,274 800,450" fill="#14141b"/>
<polygon points="0,450 94,366 199,301 345,304 454,355 550,350 646,366 800,450" fill="#1b1b23"/>
<rect x="340" y="140" width="120" height="130" fill="none" stroke="#b78a3e" stroke-width="8"/><rect x="375" y="190" width="50" height="80" fill="#b78a3e"/><rect x="330" y="120" width="140" height="18" fill="#b78a3e" opacity="0.6"/>
<rect x="0" y="392" width="40" height="58" fill="#17171e"/><rect x="0" y="392" width="40" height="10" fill="#26262f"/><rect x="14" y="414" width="12" height="12" fill="#b78a3e" opacity="0.55"/><rect x="40" y="392" width="40" height="58" fill="#1e1e26"/><rect x="40" y="392" width="40" height="10" fill="#26262f"/><rect x="80" y="392" width="40" height="58" fill="#17171e"/><rect x="80" y="392" width="40" height="10" fill="#26262f"/><rect x="120" y="392" width="40" height="58" fill="#1e1e26"/><rect x="120" y="392" width="40" height="10" fill="#26262f"/><rect x="134" y="414" width="12" height="12" fill="#b78a3e" opacity="0.55"/><rect x="160" y="392" width="40" height="58" fill="#17171e"/><rect x="160" y="392" width="40" height="10" fill="#26262f"/><rect x="200" y="392" width="40" height="58" fill="#1e1e26"/><rect x="200" y="392" width="40" height="10" fill="#26262f"/><rect x="240" y="392" width="40" height="58" fill="#17171e"/><rect x="240" y="392" width="40" height="10" fill="#26262f"/><rect x="254" y="414" width="12" height="12" fill="#b78a3e" opacity="0.55"/><rect x="280" y="392" width="40" height="58" fill="#1e1e26"/><rect x="280" y="392" width="40" height="10" fill="#26262f"/><rect x="320" y="392" width="40" height="58" fill="#17171e"/><rect x="320" y="392" width="40" height="10" fill="#26262f"/><rect x="360" y="392" width="40" height="58" fill="#1e1e26"/><rect x="360" y="392" width="40" height="10" fill="#26262f"/><rect x="374" y="414" width="12" height="12" fill="#b78a3e" opacity="0.55"/><rect x="400" y="392" width="40" height="58" fill="#17171e"/><rect x="400" y="392" width="40" height="10" fill="#26262f"/><rect x="440" y="392" width="40" height="58" fill="#1e1e26"/><rect x="440" y="392" width="40" height="10" fill="#26262f"/><rect x="480" y="392" width="40" height="58" fill="#17171e"/><rect x="480" y="392" width="40" height="10" fill="#26262f"/><rect x="494" y="414" width="12" height="12" fill="#b78a3e" opacity="0.55"/><rect x="520" y="392" width="40" height="58" fill="#1e1e26"/><rect x="520" y="392" width="40" height="10" fill="#26262f"/><rect x="560" y="392" width="40" height="58" fill="#17171e"/><rect x="560" y="392" width="40" height="10" fill="#26262f"/><rect x="600" y="392" width="40" height="58" fill="#1e1e26"/><rect x="600" y="392" width="40" height="10" fill="#26262f"/><rect x="614" y="414" width="12" height="12" fill="#b78a3e" opacity="0.55"/><rect x="640" y="392" width="40" height="58" fill="#17171e"/><rect x="640" y="392" width="40" height="10" fill="#26262f"/><rect x="680" y="392" width="40" height="58" fill="#1e1e26"/><rect x="680" y="392" width="40" height="10" fill="#26262f"/><rect x="720" y="392" width="40" height="58" fill="#17171e"/><rect x="720" y="392" width="40" height="10" fill="#26262f"/><rect x="734" y="414" width="12" height="12" fill="#b78a3e" opacity="0.55"/><rect x="760" y="392" width="40" height="58" fill="#1e1e26"/><rect x="760" y="392" width="40" height="10" fill="#26262f"/>
<rect width="800" height="450" fill="url(#v)"/>
<rect x="24" y="24" width="150" height="10" fill="#b78a3e" opacity="0.9"/>
<rect x="24" y="40" width="90" height="6" fill="#3a3a44"/>
<text x="36" y="418" font-family="monospace" font-size="26" font-weight="bold" fill="#f0f0f3" letter-spacing="3">FORGOTTEN DUNGEONS</text>
</svg>