<svg xmlns="http://www.w3.org/2000/svg" viewBox="0 0 800 450">
<defs>
<radialGradient id="g" cx="50%" cy="38%" r="75%">
<stop offset="0%" stop-color="#38bdf8" stop-opacity="0.28"/>
<stop offset="55%" stop-color="#101016" stop-opacity="1"/>
<stop offset="100%" stop-color="#08080b" stop-opacity="1"/>
</radialGradient>
<linearGradient id="v" x1="0" y1="0" x2="0" y2="1">
<stop offset="55%" stop-color="black" stop-opacity="0"/>
<stop offset="100%" stop-color="black" stop-opacity="0.55"/>
</linearGradient>
</defs>
<rect width="800" height="450" fill="url(#g)"/>
<rect x="348" y="109" width="3" height="3" fill="#ffffff" opacity="0.25"/><rect x="235" y="126" width="3" height="3" fill="#ffffff" opacity="0.25"/><rect x="60" y="255" width="3" height="3" fill="#ffffff" opacity="0.25"/><rect x="737" y="91" width="3" height="3" fill="#ffffff" opacity="0.25"/><rect x="16" y="234" width="3" height="3" fill="#ffffff" opacity="0.25"/><rect x="452" y="252" width="3" height="3" fill="#ffffff" opacity="0.25"/><rect x="580" y="40" width="3" height="3" fill="#ffffff" opacity="0.25"/><rect x="725" y="202" width="3" height="3" fill="#ffffff" opacity="0.25"/><rect x="373" y="201" width="3" height="3" fill="#ffffff" opacity="0.25"/><rect x="631" y="211" width="3" height="3" fill="#ffffff" opacity="0.25"/><rect x="151" y="191" width="3" height="3" fill="#ffffff" opacity="0.25"/><rect x="78" y="228" width="3" height="3" fill="#ffffff" opacity="0.25"/><rect x="260" y="27" width="3" height="3" fill="#ffffff" opacity="0.25"/><rect x="395" y="286" width="3" height="3" fill="#ffffff" opacity="0.25"/><rect x="361" y="267" width="3" height="3" fill="#ffffff" opacity="0.25"/><rect x="229" y="9" width="3" height="3" fill="#ffffff" opacity="0.25"/><rect x="696" y="136" width="3" height="3" fill="#ffffff" opacity="0.25"/><rect x="668" y="296" width="3" height="3" fill="#ffffff" opacity="0.25"/><rect x="60" y="287" width="3" height="3" fill="#ffffff" opacity="0.25"/><rect x="342" y="208" width="3" height="3" fill="#ffffff" opacity="0.25"/><rect x="703" y="24" width="3" height="3" fill="#ffffff" opacity="0.25"/><rect x="323" y="36" width="3" height="3" fill="#ffffff" opacity="0.25"/><rect x="442" y="244" width="3" height="3" fill="#ffffff" opacity="0.25"/><rect x="289" y="4" width="3" height="3" fill="#ffffff" opacity="0.25"/><rect x="734" y="166" width="3" height="3" fill="#ffffff" opacity="0.25"/><rect x="342" y="173" width="3" height="3" fill="#ffffff" opacity="0.25"/><rect x="267" y="260" width="3" height="3" fill="#ffffff" opacity="0.25"/><rect x="285" y="276" width="3" height="3" fill="#ffffff" opacity="0.25"/><rect x="264" y="278" width="3" height="3" fill="#ffffff" opacity="0.25"/><rect x="232" y="252" width="3" height="3" fill="#ffffff" opacity="0.25"/><rect x="728" y="209" width="3" height="3" fill="#ffffff" opacity="0.25"/><rect x="56" y="96" width="3" height="3" fill="#ffffff" opacity="0.25"/><rect x="6" y="173" width="3" height="3" fill="#ffffff" opacity="0.25"/><rect x="731" y="124" width="3" height="3" fill="#ffffff" opacity="0.25"/><rect x="417" y="155" width="3" height="3" fill="#ffffff" opacity="0.25"/><rect x="3" y="13" width="3" height="3" fill="#ffffff" opacity="0.25"/><rect x="621" y="164" width="3" height="3" fill="#ffffff" opacity="0.25"/><rect x="461" y="132" width="3" height="3" fill="#ffffff" opacity="0.25"/><rect x="769" y="274" width="3" height="3" fill="#ffffff" opacity="0.25"/><rect x="458" y="280" width="3" height="3" fill="#ffffff" opacity="0.25"/><rect x="712" y="167" width="3" height="3" fill="#ffffff" opacity="0.25"/><rect x="515" y="101" width="3" height="3" fill="#ffffff" opacity="0.25"/><rect x="213" y="214" width="3" height="3" fill="#ffffff" opacity="0.25"/><rect x="615" y="168" width="3" height="3" fill="#ffffff" opacity="0.25"/><rect x="119" y="64" width="3" height="3" fill="#ffffff" opacity="0.25"/><rect x="6" y="276" width="3" height="3" fill="#ffffff" opacity="0.25"/><rect x="348" y="244" width="3" height="3" fill="#ffffff" opacity="0.25"/><rect x="273" y="144" width="3" height="3" fill="#ffffff" opacity="0.25"/><rect x="734" y="25" width="3" height="3" fill="#ffffff" opacity="0.25"/><rect x="461" y="300" width="3" height="3" fill="#ffffff" opacity="0.25"/><rect x="295" y="284" width="3" height="3" fill="#ffffff" opacity="0.25"/><rect x="602" y="54" width="3" height="3" fill="#ffffff" opacity="0.25"/><rect x="449" y="53" width="3" height="3" fill="#ffffff" opacity="0.25"/><rect x="533" y="116" width="3" height="3" fill="#ffffff" opacity="0.25"/><rect x="273" y="269" width="3" height="3" fill="#ffffff" opacity="0.25"/><rect x="402" y="127" width="3" height="3" fill="#ffffff" opacity="0.25"/><rect x="715" y="62" width="3" height="3" fill="#ffffff" opacity="0.25"/><rect x="605" y="81" width="3" height="3" fill="#ffffff" opacity="0.25"/><rect x="665" y="155" width="3" height="3" fill="#ffffff" opacity="0.25"/><rect x="464" y="51" width="3" height="3" fill="#ffffff" opacity="0.25"/>
<polygon points="0,450 153,313 266,234 360,276 529,307 663,283 825,264 800,450" fill="#14141b"/>
<polygon points="0,450 160,305 285,365 413,297 565,341 665,353 801,336 800,450" fill="#1b1b23"/>
<polygon points="370,270 430,270 480,392 320,392" fill="#2a2a34"/><rect x="395" y="280" width="10" height="14" fill="#38bdf8"/><rect x="395" y="304" width="10" height="14" fill="#38bdf8"/><rect x="395" y="328" width="10" height="14" fill="#38bdf8"/><rect x="395" y="352" width="10" height="14" fill="#38bdf8"/>
<rect x="0" y="392" width="40" height="58" fill="#17171e"/><rect x="0" y="392" width="40" height="10" fill="#26262f"/><rect x="14" y="414" width="12" height="12" fill="#38bdf8" opacity="0.55"/><rect x="40" y="392" width="40" height="58" fill="#1e1e26"/><rect x="40" y="392" width="40" height="10" fill="#26262f"/><rect x="80" y="392" width="40" height="58" fill="#17171e"/><rect x="80" y="392" width="40" height="10" fill="#26262f"/><rect x="120" y="392" width="40" height="58" fill="#1e1e26"/><rect x="120" y="392" width="40" height="10" fill="#26262f"/><rect x="134" y="414" width="12" height="12" fill="#38bdf8" opacity="0.55"/><rect x="160" y="392" width="40" height="58" fill="#17171e"/><rect x="160" y="392" width="40" height="10" fill="#26262f"/><rect x="200" y="392" width="40" height="58" fill="#1e1e26"/><rect x="200" y="392" width="40" height="10" fill="#26262f"/><rect x="240" y="392" width="40" height="58" fill="#17171e"/><rect x="240" y="392" width="40" height="10" fill="#26262f"/><rect x="254" y="414" width="12" height="12" fill="#38bdf8" opacity="0.55"/><rect x="280" y="392" width="40" height="58" fill="#1e1e26"/><rect x="280" y="392" width="40" height="10" fill="#26262f"/><rect x="320" y="392" width="40" height="58" fill="#17171e"/><rect x="320" y="392" width="40" height="10" fill="#26262f"/><rect x="360" y="392" width="40" height="58" fill="#1e1e26"/><rect x="360" y="392" width="40" height="10" fill="#26262f"/><rect x="374" y="414" width="12" height="12" fill="#38bdf8" opacity="0.55"/><rect x="400" y="392" width="40" height="58" fill="#17171e"/><rect x="400" y="392" width="40" height="10" fill="#26262f"/><rect x="440" y="392" width="40" height="58" fill="#1e1e26"/><rect x="440" y="392" width="40" height="10" fill="#26262f"/><rect x="480" y="392" width="40" height="58" fill="#17171e"/><rect x="480" y="392" width="40" height="10" fill="#26262f"/><rect x="494" y="414" width="12" height="12" fill="#38bdf8" opacity="0.55"/><rect x="520" y="392" width="40" height="58" fill="#1e1e26"/><rect x="520" y="392" width="40" height="10" fill="#26262f"/><rect x="560" y="392" width="40" height="58" fill="#17171e"/><rect x="560" y="392" width="40" height="10" fill="#26262f"/><rect x="600" y="392" width="40" height="58" fill="#1e1e26"/><rect x="600" y="392" width="40" height="10" fill="#26262f"/><rect x="614" y="414" width="12" height="12" fill="#38bdf8" opacity="0.55"/><rect x="640" y="392" width="40" height="58" fill="#17171e"/><rect x="640" y="392" width="40" height="10" fill="#26262f"/><rect x="680" y="392" width="40" height="58" fill="#1e1e26"/><rect x="680" y="392" width="40" height="10" fill="#26262f"/><rect x="720" y="392" width="40" height="58" fill="#17171e"/><rect x="720" y="392" width="40" height="10" fill="#26262f"/><rect x="734" y="414" width="12" height="12" fill="#38bdf8" opacity="0.55"/><rect x="760" y="392" width="40" height="58" fill="#1e1e26"/><rect x="760" y="392" width="40" height="10" fill="#26262f"/>
<rect width="800" height="450" fill="url(#v)"/>
<rect x="24" y="24" width="150" height="10" fill="#38bdf8" opacity="0.9"/>
<rect x="24" y="40" width="90" height="6" fill="#3a3a44"/>
<text x="36" y="418" font-family="monospace" font-size="26" font-weight="bold" fill="#f0f0f3" letter-spacing="3">SKYLINE VEHICLES</text>
</svg>